<?xml version="1.0" standalone="no"?>
<!DOCTYPE svg PUBLIC "-//W3C//DTD SVG 20010904//EN"
 "http://www.w3.org/TR/2001/REC-SVG-20010904/DTD/svg10.dtd">
<svg version="1.0" xmlns="http://www.w3.org/2000/svg"
 width="1024.000000pt" height="1024.000000pt" viewBox="0 0 1024.000000 1024.000000"
 preserveAspectRatio="xMidYMid meet">
<metadata>
Created by potrace 1.14, written by Peter Selinger 2001-2017
</metadata>
<g transform="translate(0.000000,1024.000000) scale(0.100000,-0.100000)"
fill="#000000" stroke="none">
<path d="M4871 10063 c4 -24 -3 -35 -17 -29 -15 6 -15 4 -3 -11 7 -10 9 -15 5
-11 -5 4 -16 2 -24 -5 -10 -8 -13 -8 -9 -1 4 7 0 15 -9 18 -8 3 -12 2 -9 -4 3
-5 1 -18 -5 -27 -11 -17 -11 -17 -6 1 5 13 2 17 -8 13 -7 -3 -19 -1 -25 4 -8
6 -8 5 -1 -3 15 -18 12 -28 -7 -21 -10 4 -14 2 -9 -5 4 -7 -2 -9 -20 -6 -15 3
-23 1 -20 -5 7 -10 -34 -8 -52 3 -8 4 -10 2 -6 -7 6 -16 -10 -30 -39 -34 -12
-2 -16 1 -11 9 3 7 -5 0 -19 -15 -18 -20 -27 -24 -31 -15 -4 9 -8 10 -11 2 -3
-7 -14 -10 -24 -7 -10 3 -22 0 -25 -6 -4 -6 -1 -9 7 -5 8 3 17 1 21 -4 6 -10
-24 -9 -42 2 -8 5 -12 1 -12 -11 -1 -17 -1 -17 -11 0 -5 9 -15 17 -22 17 -7 0
-6 -4 3 -10 8 -5 11 -10 6 -10 -5 0 -2 -8 5 -17 11 -15 11 -16 -1 -5 -17 14
-44 16 -35 2 3 -5 -1 -10 -10 -10 -10 0 -13 -5 -9 -12 4 -7 3 -8 -5 -4 -9 6
-9 11 0 22 10 12 8 13 -7 8 -10 -4 -23 -10 -29 -14 -5 -4 -20 -6 -32 -5 -13 1
-21 -1 -18 -3 3 -3 -1 -12 -8 -20 -10 -13 -9 -14 3 -7 13 8 13 7 0 -11 -8 -10
-15 -20 -16 -22 -1 -2 -4 4 -8 13 -4 11 -2 14 6 9 7 -5 8 -3 3 5 -5 9 -14 6
-34 -13 -25 -24 -28 -25 -49 -10 -20 14 -21 14 -15 -2 5 -13 3 -15 -7 -9 -8 5
-11 4 -6 -3 3 -6 2 -13 -4 -17 -5 -3 -10 -1 -10 4 0 6 -4 11 -10 11 -5 0 -7
-6 -5 -12 3 -8 -4 -14 -19 -14 -18 -1 -23 2 -19 13 3 8 -6 3 -21 -12 -15 -15
-23 -31 -19 -38 4 -7 -6 -3 -22 7 -30 19 -30 19 -13 0 16 -19 16 -20 -2 -20
-10 0 -16 5 -13 10 3 5 1 6 -5 2 -5 -3 -12 -1 -14 6 -3 7 -7 5 -11 -6 -4 -9
-3 -15 3 -11 5 3 8 -4 7 -14 -1 -18 -3 -19 -18 -5 -12 10 -19 12 -24 4 -3 -5
-11 -7 -17 -4 -6 4 -8 2 -5 -3 4 -6 0 -14 -9 -17 -8 -3 -13 -2 -10 2 2 4 -5 9
-17 9 -12 1 -17 -1 -11 -5 13 -8 15 -44 2 -36 -5 3 -6 9 -4 13 3 4 -1 8 -9 8
-8 0 -12 -4 -10 -8 8 -13 -22 -18 -34 -6 -9 9 -11 8 -6 -4 5 -12 0 -15 -23
-14 -17 1 -29 -3 -29 -11 0 -10 6 -10 21 -3 21 10 21 10 1 -6 -11 -8 -25 -13
-32 -11 -7 3 -13 0 -13 -7 0 -8 -4 -6 -10 3 -9 14 -14 7 -11 -13 1 -4 -8 -3
-18 3 -16 8 -23 6 -35 -11 -8 -12 -19 -18 -25 -14 -6 3 -12 1 -12 -4 -1 -6 -2
-15 -3 -20 0 -5 -5 -13 -10 -18 -5 -4 -6 -3 -2 4 3 6 2 14 -4 18 -6 4 -8 10
-6 14 3 4 -1 8 -9 8 -9 0 -11 -4 -6 -11 6 -7 -2 -22 -21 -40 -30 -29 -30 -29
-24 -5 3 13 3 18 0 11 -3 -6 -10 -10 -15 -7 -5 4 -6 -1 -3 -9 6 -16 -5 -21
-35 -16 -8 1 -21 -6 -28 -16 -13 -18 -48 -30 -37 -13 3 5 10 6 16 3 7 -4 8 -2
4 5 -10 16 -39 -7 -32 -25 3 -8 -4 -11 -20 -9 -17 2 -24 -2 -20 -11 3 -8 0
-11 -9 -7 -8 3 -12 10 -8 16 4 6 1 7 -6 3 -7 -5 -10 -15 -6 -24 4 -12 1 -12
-16 4 -20 17 -22 17 -16 1 5 -13 2 -17 -11 -15 -12 2 -17 -4 -16 -21 1 -21 -1
-22 -11 -7 -13 17 -30 23 -20 6 3 -5 -3 -10 -15 -10 -14 0 -19 -4 -14 -12 5
-9 2 -8 -9 1 -15 12 -17 12 -12 -1 3 -8 -2 -21 -12 -29 -16 -13 -17 -12 -4 4
9 11 10 17 2 17 -6 0 -14 -7 -18 -16 -5 -13 -7 -13 -14 -2 -7 11 -9 11 -9 -1
0 -11 -3 -11 -15 -1 -9 7 -18 10 -22 6 -3 -3 -2 -6 4 -6 5 0 10 -7 10 -15 0
-12 -3 -12 -15 -2 -13 10 -14 9 -3 -10 10 -19 9 -22 -4 -17 -8 4 -15 10 -15
15 0 5 -5 9 -11 9 -6 0 -9 -6 -6 -14 4 -10 -3 -13 -23 -11 -19 2 -35 -5 -47
-18 -10 -11 -13 -17 -6 -14 6 4 14 3 18 -2 6 -10 -27 -7 -44 4 -5 3 -12 1 -16
-5 -4 -6 -11 -7 -17 -4 -6 4 -8 3 -5 -3 4 -5 -3 -20 -14 -32 -17 -18 -23 -19
-42 -9 -20 10 -21 10 -9 -5 12 -14 11 -16 -9 -12 -12 2 -29 0 -38 -6 -14 -9
-14 -10 2 -5 9 3 17 1 17 -4 0 -11 -1 -11 -49 -13 -21 -1 -36 -8 -38 -17 -4
-12 -3 -12 5 -2 8 11 10 11 15 -1 4 -11 -2 -14 -30 -12 -19 1 -40 -4 -48 -11
-7 -7 -16 -10 -21 -6 -5 4 -2 -1 5 -10 15 -20 2 -25 -16 -7 -8 8 -13 7 -18 -2
-5 -8 -4 -10 3 -5 7 4 12 2 12 -3 0 -6 -7 -11 -16 -11 -9 0 -12 -5 -8 -12 4
-7 3 -8 -5 -4 -6 4 -9 11 -6 16 3 5 1 12 -5 15 -6 4 -9 1 -8 -7 2 -7 -3 -12
-11 -10 -12 3 -12 1 0 -14 13 -16 12 -16 -9 -5 -18 9 -22 9 -20 -1 2 -7 -4
-14 -12 -14 -8 -1 -21 -2 -28 -3 -7 0 -10 -5 -7 -11 3 -5 -1 -10 -10 -10 -10
0 -13 5 -9 12 4 7 3 8 -5 4 -9 -6 -9 -11 -1 -21 7 -9 6 -16 -7 -26 -16 -13
-17 -12 -5 2 10 14 10 18 -3 23 -9 3 -13 2 -10 -4 3 -6 1 -10 -4 -10 -6 0 -11
-7 -11 -16 0 -14 -1 -14 -16 0 -19 20 -25 20 -18 2 3 -7 -6 -20 -20 -30 -30
-19 -36 -20 -36 -5 0 5 4 8 9 4 5 -3 12 -1 15 4 10 16 -20 6 -38 -12 -10 -9
-22 -17 -27 -17 -5 0 -8 -5 -7 -12 2 -7 -1 -12 -7 -13 -5 0 -16 -4 -24 -9 -9
-6 -12 -5 -7 2 3 6 2 13 -4 17 -5 3 -10 0 -10 -8 0 -21 -33 -47 -49 -38 -9 6
-10 11 -2 15 6 4 11 2 11 -4 0 -6 5 -8 11 -4 8 4 7 9 -2 15 -8 4 -19 3 -26 -3
-11 -9 -11 -14 -1 -26 12 -13 10 -14 -11 -2 -21 11 -23 10 -18 -4 4 -9 2 -16
-4 -16 -6 0 -7 -5 -3 -12 4 -7 3 -8 -4 -4 -6 4 -9 13 -5 21 11 29 -7 14 -22
-17 -9 -20 -12 -23 -9 -9 4 16 3 21 -5 17 -6 -4 -11 -15 -11 -24 0 -12 -3 -13
-8 -5 -9 15 -44 11 -50 -5 -2 -7 -9 -9 -15 -5 -7 4 -6 -1 2 -10 12 -15 12 -17
-3 -11 -9 3 -22 1 -30 -5 -8 -7 -20 -10 -27 -9 -8 2 -13 -4 -11 -13 2 -12 -4
-16 -23 -14 -16 2 -23 -1 -18 -7 4 -7 -2 -9 -15 -6 -18 5 -20 3 -12 -12 8 -14
5 -16 -15 -12 -19 3 -27 -1 -34 -19 -9 -22 -17 -11 -11 16 1 6 -9 0 -22 -11
-13 -12 -30 -19 -38 -17 -13 4 -13 3 0 -6 10 -7 20 -5 35 7 13 11 12 8 -4 -11
-14 -15 -27 -25 -29 -22 -3 3 -12 -1 -20 -8 -11 -8 -14 -8 -9 0 4 6 2 15 -4
19 -7 4 -9 3 -6 -3 3 -5 -1 -19 -9 -31 -12 -18 -19 -20 -34 -12 -15 8 -21 6
-29 -9 -6 -10 -7 -22 -3 -26 4 -5 2 -5 -5 -1 -7 4 -9 14 -6 24 4 9 -5 4 -21
-12 -28 -31 -66 -45 -66 -24 0 6 -3 8 -6 5 -4 -4 -1 -14 7 -24 9 -10 9 -14 2
-9 -7 4 -20 -2 -30 -13 -16 -20 -18 -20 -43 -4 -24 16 -24 16 -10 -2 14 -17
13 -18 -4 -12 -17 7 -17 6 -5 -9 13 -16 12 -16 -8 -5 -27 14 -29 9 -6 -15 16
-16 16 -16 -5 -10 -28 9 -50 -3 -31 -16 11 -8 10 -9 -2 -5 -9 3 -22 0 -28 -6
-9 -9 -14 -8 -21 3 -8 13 -10 12 -10 -4 0 -15 -3 -16 -15 -6 -9 7 -18 10 -22
6 -3 -3 -2 -6 4 -6 5 0 10 -6 10 -14 0 -8 -8 -13 -19 -11 -10 2 -18 -2 -18 -8
0 -7 -9 -14 -20 -15 -11 -1 -28 -3 -39 -4 -11 -1 -17 -8 -14 -15 4 -11 8 -11
22 -1 14 11 14 11 4 -3 -7 -9 -9 -20 -5 -25 4 -5 -3 -1 -15 9 -16 14 -23 15
-29 6 -5 -8 -3 -10 6 -4 9 5 11 4 6 -3 -4 -7 -14 -12 -22 -12 -8 0 -12 5 -9
11 4 6 -2 5 -14 -3 -12 -7 -21 -17 -21 -21 0 -5 -6 -7 -13 -4 -8 3 -14 -1 -14
-9 0 -14 10 -11 42 15 18 15 19 15 7 0 -6 -9 -8 -20 -4 -24 4 -5 2 -6 -3 -2
-6 3 -17 2 -25 -3 -9 -5 -19 -5 -27 2 -8 6 -16 8 -20 4 -3 -3 -1 -6 5 -6 7 0
12 -5 12 -12 0 -6 -3 -8 -7 -5 -3 4 -13 -2 -20 -13 -8 -11 -19 -18 -24 -15
-17 11 -50 14 -44 4 4 -5 10 -7 14 -5 4 3 8 -1 8 -9 0 -10 -6 -11 -25 -4 -23
9 -24 8 -11 -8 9 -11 10 -14 2 -9 -8 4 -13 2 -13 -5 0 -8 -4 -8 -15 1 -9 7
-18 10 -22 6 -3 -3 -1 -6 5 -6 7 0 12 -5 12 -11 0 -6 -6 -9 -14 -6 -8 3 -17
-1 -20 -9 -3 -8 -12 -14 -19 -14 -8 0 -22 -10 -31 -22 -9 -13 -14 -17 -10 -9
4 9 2 12 -7 9 -8 -3 -12 -13 -11 -23 3 -15 1 -16 -10 -8 -14 11 -45 10 -56 -3
-4 -4 0 -5 10 -1 9 3 19 3 22 0 9 -9 -46 -34 -61 -29 -8 4 -13 -2 -13 -16 0
-21 0 -21 -15 -2 -14 18 -14 18 -9 -2 3 -12 0 -25 -7 -29 -7 -5 -10 -4 -6 2 3
5 0 10 -7 10 -8 0 -12 -6 -9 -14 4 -9 0 -11 -13 -6 -12 4 -15 3 -10 -5 5 -8 0
-12 -12 -12 -11 0 -26 -8 -33 -17 -11 -15 -11 -16 1 -5 8 6 21 12 30 12 9 0 5
-6 -10 -14 -22 -11 -27 -11 -38 3 -11 14 -12 12 -7 -14 5 -21 4 -26 -3 -16
-12 16 -35 5 -28 -14 3 -10 -2 -12 -21 -9 -20 4 -24 1 -20 -11 4 -8 2 -15 -2
-15 -5 0 -12 6 -14 13 -3 6 -6 2 -6 -10 -1 -17 -6 -20 -23 -16 -19 4 -20 3 -8
-6 13 -9 13 -11 -2 -11 -22 0 -59 -40 -51 -53 3 -6 1 -7 -6 -3 -9 6 -9 12 1
24 12 15 11 16 -5 3 -10 -8 -16 -19 -13 -26 2 -6 -5 -17 -16 -24 -11 -7 -17
-8 -13 -2 3 6 1 11 -4 11 -6 0 -11 -5 -11 -11 0 -6 -7 -9 -14 -6 -10 4 -13 1
-9 -9 3 -9 -1 -14 -12 -14 -10 0 -15 -5 -12 -13 2 -6 -2 -18 -9 -25 -8 -7 -14
-9 -14 -5 0 4 -5 0 -11 -10 -6 -9 -16 -14 -22 -11 -7 4 -8 3 -4 -2 5 -5 13 -9
18 -9 5 0 9 -3 9 -7 0 -5 -1 -7 -3 -5 -8 7 -34 -31 -31 -46 1 -10 -1 -15 -7
-12 -5 4 -6 11 -3 17 4 6 -4 3 -18 -8 -23 -17 -24 -20 -9 -32 9 -7 11 -11 4
-8 -6 4 -14 2 -18 -4 -3 -5 -1 -10 5 -10 6 0 9 -4 5 -10 -3 -5 -12 -7 -19 -4
-20 8 -30 -14 -15 -32 11 -13 9 -19 -10 -34 -18 -13 -21 -19 -11 -25 9 -5 11
-4 6 3 -4 7 -2 12 3 12 18 0 12 -19 -10 -30 -22 -12 -20 -37 2 -32 9 2 7 -4
-5 -17 -10 -11 -24 -18 -30 -14 -6 3 -6 0 1 -7 10 -11 9 -18 -5 -34 -16 -20
-16 -20 1 -7 12 10 17 10 17 2 0 -7 5 -9 12 -5 7 4 8 3 4 -5 -4 -6 -12 -9 -17
-6 -5 4 -9 1 -9 -5 0 -6 -4 -9 -9 -6 -5 4 -8 -1 -7 -10 1 -8 9 -20 17 -25 13
-8 5 -14 -16 -9 -5 1 -1 -8 10 -20 15 -16 15 -20 3 -15 -9 4 -19 1 -24 -6 -4
-7 -3 -10 3 -6 6 4 10 -4 11 -18 0 -14 -4 -23 -8 -20 -4 3 -14 -3 -21 -13 -13
-15 -12 -16 3 -3 15 11 19 11 24 -4 4 -9 1 -22 -5 -28 -9 -9 -10 -8 -5 8 7 17
6 18 -8 5 -14 -13 -14 -16 0 -26 8 -6 12 -16 8 -22 -3 -5 0 -13 6 -16 7 -3 0
-4 -17 -1 -21 4 -26 3 -16 -4 12 -8 12 -12 2 -24 -9 -12 -9 -17 0 -23 8 -5 9
-3 4 6 -6 9 -4 11 4 5 9 -5 10 -10 2 -18 -15 -15 -14 -30 1 -21 7 4 1 -8 -12
-27 -19 -26 -20 -31 -5 -19 17 14 18 13 12 -3 -4 -10 -7 -30 -7 -43 0 -14 -4
-22 -10 -19 -6 3 -10 1 -10 -4 0 -6 4 -11 9 -11 5 0 8 -17 7 -37 -2 -21 2 -47
7 -58 9 -17 8 -18 -4 -8 -10 8 -19 9 -29 1 -13 -8 -12 -9 2 -5 16 6 32 -15 20
-27 -11 -12 -11 -40 1 -55 10 -12 9 -13 -2 -6 -11 6 -13 4 -8 -9 5 -13 3 -17
-7 -13 -9 4 -13 0 -11 -11 2 -9 4 -21 4 -25 1 -5 5 -6 10 -2 5 3 12 1 15 -4 7
-10 -13 -9 -29 1 -6 4 -11 -2 -11 -12 0 -10 6 -16 13 -13 7 3 13 0 13 -6 0 -6
-6 -11 -14 -11 -8 0 -13 -8 -11 -17 1 -10 -3 -24 -9 -32 -8 -11 -8 -13 2 -7 8
5 12 1 12 -13 0 -11 5 -23 11 -27 8 -5 4 -13 -12 -26 -13 -11 -19 -17 -13 -14
7 3 14 -3 17 -13 3 -12 0 -18 -7 -15 -7 3 -12 -5 -12 -20 0 -14 4 -22 8 -20 4
3 8 0 8 -5 0 -6 -4 -11 -9 -11 -11 0 -8 -73 4 -82 6 -5 4 -8 -5 -8 -13 0 -13
-2 -1 -9 15 -10 25 -41 13 -40 -19 3 -30 -3 -36 -17 -5 -14 -4 -15 9 -4 9 7
18 10 21 7 3 -3 -3 -11 -15 -19 l-21 -13 23 -12 c12 -7 16 -12 10 -13 -7 0
-13 -5 -13 -11 0 -5 6 -7 13 -3 7 5 6 0 -3 -11 -8 -10 -10 -16 -3 -12 6 4 15
3 18 -3 4 -6 3 -10 -2 -9 -20 3 -34 -2 -28 -11 4 -6 10 -8 14 -6 4 3 7 -6 7
-20 0 -13 -3 -24 -7 -24 -14 0 -16 -40 -3 -51 8 -6 14 -16 14 -21 0 -5 -7 -2
-16 6 -8 9 -18 16 -22 16 -3 0 -1 -5 6 -12 14 -14 16 -48 2 -48 -5 0 -7 6 -4
14 3 8 2 16 -3 19 -4 3 -8 -19 -9 -49 0 -32 3 -50 7 -42 5 7 9 10 10 6 1 -5 2
-11 3 -15 1 -5 5 -14 10 -21 7 -11 4 -12 -10 -4 -18 10 -19 4 -19 -105 0 -63
1 -110 3 -104 2 6 9 8 15 4 7 -4 6 1 -2 10 -7 9 -9 17 -3 17 14 0 23 -28 11
-36 -6 -4 -5 -11 3 -22 11 -13 11 -14 -7 -5 -20 11 -20 8 -20 -80 0 -51 4 -98
9 -106 6 -9 5 -12 -1 -8 -6 4 -10 -12 -11 -38 -2 -30 2 -45 10 -45 8 0 9 -3 3
-8 -12 -9 -20 -66 -8 -59 5 3 9 -3 9 -13 0 -10 -4 -16 -8 -14 -5 3 -7 -8 -6
-26 2 -22 6 -29 18 -25 13 5 13 4 0 -7 -19 -16 -27 -163 -8 -152 8 5 8 3 2 -7
-5 -8 -9 -89 -9 -181 0 -163 0 -166 20 -155 17 9 18 8 8 -5 -10 -11 -10 -17 0
-27 10 -11 8 -12 -8 -3 -20 10 -20 7 -20 -108 0 -65 4 -122 9 -127 5 -4 6 -3
3 4 -4 6 -1 13 5 16 10 3 10 7 2 18 -9 11 -8 17 3 28 13 12 14 11 9 -7 -4 -11
-2 -23 5 -27 8 -5 8 -9 0 -14 -6 -4 -13 -24 -16 -46 -4 -32 -2 -35 8 -21 11
15 12 14 12 -8 0 -13 -3 -22 -7 -19 -13 7 -9 -12 5 -26 10 -10 8 -16 -10 -30
l-22 -18 22 -11 c12 -6 16 -11 10 -11 -7 -1 -13 -6 -13 -12 0 -5 4 -8 9 -4 5
3 13 0 17 -6 4 -7 3 -10 -2 -6 -5 3 -18 -2 -29 -10 -19 -15 -19 -15 5 -9 l25
7 -25 -16 c-14 -9 -17 -14 -8 -11 10 3 20 1 23 -4 4 -6 0 -10 -7 -10 -9 0 -9
-3 2 -10 13 -8 13 -10 1 -10 -11 0 -10 -4 5 -16 13 -11 14 -14 3 -11 -16 5
-20 -18 -6 -40 4 -6 1 -14 -5 -16 -8 -3 -6 -6 5 -6 10 -1 15 -6 12 -11 -4 -6
-9 -8 -13 -6 -4 2 -7 -9 -7 -24 -1 -16 3 -26 8 -23 5 3 6 -5 2 -18 -7 -22 -7
-23 11 -9 18 14 18 14 5 -2 -11 -15 -11 -18 0 -18 8 0 5 -6 -7 -15 -10 -8 -14
-15 -9 -15 6 0 3 -5 -5 -11 -11 -8 -9 -9 10 -3 22 6 23 5 11 -9 -15 -19 -7
-52 10 -41 8 4 9 3 5 -4 -4 -6 -13 -9 -21 -5 -11 4 -13 1 -9 -11 3 -9 10 -14
14 -11 11 7 6 -22 -5 -32 -4 -4 -5 -2 0 6 5 9 4 12 -2 8 -10 -7 -11 -42 -1
-53 4 -3 4 -12 1 -20 -3 -8 0 -14 7 -14 6 0 9 4 5 9 -3 5 0 13 6 17 8 4 9 3 5
-4 -4 -7 -1 -12 6 -12 9 0 9 -3 -2 -10 -13 -9 -13 -11 0 -20 8 -5 10 -10 5
-10 -6 0 -15 4 -21 10 -6 6 -10 3 -10 -9 0 -11 4 -17 8 -15 4 3 8 -4 8 -15 0
-12 5 -21 11 -21 5 0 8 -4 4 -9 -3 -5 -1 -13 5 -16 7 -4 7 -11 2 -18 -5 -7 -8
-20 -7 -30 2 -9 -1 -15 -6 -11 -5 3 -9 1 -9 -4 0 -6 7 -13 16 -16 15 -6 15 -8
-2 -28 -19 -20 -19 -21 6 -14 14 4 20 4 14 -1 -6 -4 -10 -21 -9 -36 1 -20 -2
-26 -12 -23 -8 3 -11 1 -8 -4 3 -6 14 -10 23 -10 13 0 14 -2 4 -9 -8 -4 -13
-14 -12 -22 4 -28 0 -40 -12 -33 -7 4 -8 3 -4 -5 6 -9 11 -9 24 1 12 10 14 10
8 1 -4 -7 -3 -13 3 -13 6 0 8 -7 5 -15 -4 -9 0 -15 7 -15 11 0 11 -2 0 -9 -12
-8 -12 -12 -2 -25 8 -9 10 -16 6 -16 -4 0 -2 -7 5 -16 8 -8 9 -14 4 -12 -5 2
-9 -1 -9 -7 0 -5 3 -9 6 -8 4 1 5 -6 2 -16 -3 -10 0 -22 6 -25 16 -10 1 -35
-17 -29 -10 4 -6 -3 8 -15 21 -19 22 -21 5 -16 -19 5 -19 5 -2 -9 20 -17 15
-63 -5 -51 -7 5 -8 2 -3 -5 5 -9 10 -10 18 -2 6 6 16 11 22 11 6 0 6 -3 -1 -8
-16 -10 -26 -49 -15 -56 6 -4 8 -14 5 -24 -5 -15 -4 -15 6 -2 9 12 11 8 8 -22
-3 -30 -1 -35 13 -33 14 3 16 -1 9 -25 -6 -22 -4 -34 11 -51 11 -13 17 -29 14
-36 -2 -8 0 -11 5 -8 6 3 10 1 10 -6 0 -9 3 -9 14 0 12 10 13 8 9 -8 -3 -13
-1 -21 7 -21 9 0 10 -3 1 -13 -8 -11 -5 -19 14 -37 13 -13 22 -27 18 -33 -3
-6 -1 -7 5 -3 7 4 12 2 12 -3 0 -6 7 -11 16 -11 10 0 14 -6 11 -14 -4 -10 1
-13 19 -11 14 1 22 0 20 -3 -3 -2 5 -12 17 -22 18 -15 19 -20 8 -34 -9 -10
-10 -16 -2 -16 6 0 11 5 11 11 0 6 6 9 13 6 6 -2 11 -10 9 -16 -2 -9 3 -9 20
0 21 11 22 11 9 -4 -9 -12 -10 -17 -2 -17 7 0 9 -5 5 -12 -5 -9 -2 -9 9 1 12
9 17 10 17 2 0 -7 5 -9 12 -5 9 5 9 2 -1 -9 -8 -10 -9 -17 -3 -17 6 0 14 5 17
10 3 6 12 10 18 10 7 0 6 -4 -3 -10 -10 -7 -11 -10 -2 -11 27 -3 31 -4 39 -13
5 -5 3 -6 -4 -2 -7 4 -13 2 -13 -5 0 -6 8 -9 20 -6 11 3 20 1 20 -4 0 -5 -5
-9 -11 -9 -6 0 -4 -7 5 -15 18 -18 33 -20 18 -2 -7 8 -8 18 -1 27 8 12 9 11 7
-5 -2 -14 3 -21 20 -23 12 -2 20 -8 17 -13 -4 -5 -2 -9 4 -9 5 0 13 -10 16
-21 5 -14 10 -18 14 -10 5 7 12 3 21 -13 7 -14 17 -23 21 -20 4 2 11 0 14 -6
5 -8 11 -8 20 0 9 7 16 6 26 -7 8 -9 9 -14 2 -10 -6 4 -15 3 -18 -3 -4 -6 -3
-10 2 -9 21 4 54 -2 50 -8 -3 -5 2 -15 11 -23 14 -13 15 -13 10 1 -4 10 0 15
12 15 10 0 17 -3 15 -6 -2 -3 3 -18 10 -35 7 -16 14 -25 14 -18 1 6 10 11 20
10 16 -1 18 -4 8 -16 -10 -12 -9 -13 13 -1 22 12 23 11 13 -2 -18 -21 3 -41
29 -27 13 7 18 7 16 -2 -2 -6 3 -14 11 -17 9 -3 11 0 6 8 -5 8 3 5 18 -6 14
-10 27 -25 29 -33 2 -8 12 -16 23 -17 48 -6 61 -12 71 -32 6 -12 14 -19 17
-15 4 3 7 0 7 -8 0 -11 2 -11 10 1 9 13 10 13 10 0 0 -18 36 -43 70 -48 13 -2
28 -9 33 -15 7 -9 10 -9 14 1 2 6 9 10 14 7 5 -4 3 -12 -4 -19 -6 -8 -16 -11
-21 -8 -5 3 -6 0 -2 -7 6 -9 11 -9 22 0 11 9 15 8 20 -5 3 -9 10 -13 15 -10 5
3 6 10 3 16 -5 7 -2 8 5 4 7 -5 10 -14 7 -22 -3 -9 0 -11 11 -7 10 4 14 2 9
-5 -3 -6 -2 -13 3 -16 5 -4 13 -1 17 5 5 8 3 9 -6 4 -9 -5 -11 -4 -6 4 10 15
36 -4 36 -26 0 -8 5 -11 10 -8 6 4 7 12 3 18 -4 7 0 6 10 -2 9 -7 17 -19 17
-25 0 -6 -5 -4 -11 4 -9 13 -10 13 -6 0 2 -8 11 -14 20 -12 9 1 18 -7 22 -19
4 -12 10 -17 14 -12 3 5 15 13 26 17 16 6 18 5 8 -5 -18 -18 -16 -34 1 -20 10
8 16 9 21 1 3 -6 12 -7 18 -3 8 4 7 1 -1 -9 -13 -16 -2 -34 12 -21 14 15 36
10 36 -7 0 -10 7 -24 17 -31 20 -17 17 -17 36 -1 12 10 17 10 23 1 5 -8 3 -10
-7 -5 -8 4 -6 1 3 -7 10 -8 15 -17 11 -21 -4 -4 1 -4 11 0 15 6 17 4 11 -7 -7
-11 -5 -11 10 1 11 9 16 10 11 3 -5 -9 0 -13 13 -14 12 -1 26 -2 33 -3 7 0 17
-10 23 -21 6 -13 19 -20 37 -19 15 1 25 -3 22 -7 -3 -5 0 -17 6 -26 11 -17 11
-17 6 0 -3 9 -1 17 4 17 6 0 10 -7 10 -15 0 -8 5 -15 11 -15 5 0 7 5 4 10 -3
6 -4 10 -1 10 3 0 13 -12 21 -28 10 -16 14 -19 11 -7 -6 19 -6 19 8 1 10 -11
21 -16 32 -12 15 6 15 4 3 -10 -13 -16 -12 -16 7 -6 16 8 24 8 32 0 9 -9 12
-9 12 2 0 7 3 11 6 8 3 -4 0 -16 -6 -28 -7 -13 -7 -20 -2 -16 6 3 12 3 15 -1
2 -5 2 -3 1 4 -2 7 3 10 12 6 7 -3 14 -10 14 -15 0 -7 5 -7 13 0 10 9 13 5 11
-19 l-2 -31 24 23 c19 17 23 19 19 6 -5 -12 0 -19 20 -27 16 -6 23 -14 19 -22
-4 -6 -3 -8 4 -4 6 3 13 2 17 -4 4 -7 13 -7 26 1 17 9 20 7 17 -8 -2 -12 2
-17 15 -15 9 2 20 -3 23 -11 3 -9 17 -13 40 -11 26 2 34 -1 34 -14 0 -15 -2
-15 -11 -2 -9 12 -10 12 -5 -3 3 -10 6 -22 6 -25 0 -4 4 0 10 8 7 12 12 10 29
-9 12 -13 21 -20 21 -15 0 6 -6 16 -13 24 -6 7 1 4 17 -8 15 -12 33 -19 40
-15 6 4 4 -2 -4 -12 -9 -11 -10 -16 -2 -11 7 4 12 2 12 -4 0 -6 5 -8 10 -5 6
4 7 11 4 17 -4 7 -2 8 4 4 6 -4 8 -14 5 -24 -3 -9 -2 -14 2 -9 5 4 18 -1 29
-10 12 -10 18 -14 14 -9 -9 11 9 36 26 36 6 0 5 -4 -3 -9 -12 -8 -12 -14 -4
-33 8 -14 12 -17 12 -8 1 9 10 16 20 16 16 0 18 -4 9 -19 -7 -13 -7 -17 0 -13
6 3 14 1 17 -5 4 -6 18 -8 31 -5 14 4 24 2 24 -4 0 -6 -4 -8 -10 -5 -5 3 -10
1 -10 -4 0 -15 13 -14 29 2 11 10 12 9 6 -2 -6 -11 -3 -13 13 -9 12 4 25 2 28
-3 3 -5 10 -7 15 -3 5 3 9 2 8 -3 -4 -23 2 -35 16 -30 8 4 17 1 21 -5 5 -7 2
-8 -6 -3 -9 5 -11 4 -6 -4 6 -9 11 -9 24 1 13 11 14 11 7 -1 -6 -11 -4 -13 8
-8 18 7 23 -11 10 -29 -5 -5 -1 -2 7 7 13 13 18 14 28 2 7 -7 17 -11 23 -8 5
4 9 1 9 -4 0 -6 3 -10 8 -10 16 3 32 -1 31 -8 -3 -20 2 -26 11 -13 8 13 10 13
10 -2 0 -9 10 -18 23 -20 12 -2 21 -9 20 -15 -2 -12 21 -12 33 0 4 4 21 -2 39
-13 18 -11 36 -16 40 -12 5 4 5 1 1 -6 -4 -7 -12 -9 -18 -6 -7 4 -8 2 -4 -5 4
-6 12 -9 17 -6 5 4 9 0 9 -7 0 -9 3 -9 10 2 6 10 10 11 10 3 0 -7 5 -13 11
-13 5 0 8 4 5 8 -3 5 2 9 10 9 10 0 11 -4 4 -11 -20 -20 -10 -29 12 -10 13 10
18 12 11 4 -8 -11 -8 -18 3 -28 11 -10 14 -10 14 0 0 10 2 10 9 -1 5 -8 16
-11 25 -8 9 4 15 3 15 -1 -4 -24 4 -33 11 -12 8 25 8 25 10 -5 1 -26 3 -27 10
-10 6 14 9 16 10 5 2 -8 2 -18 1 -23 0 -4 5 -6 11 -5 7 2 12 -3 10 -11 -2 -11
0 -12 10 -4 15 13 53 -8 40 -22 -4 -5 -1 -5 7 0 8 4 17 2 23 -6 8 -11 9 -11 5
1 -3 11 2 16 17 17 11 0 15 -1 9 -4 -7 -3 -13 -8 -13 -13 0 -13 29 -20 36 -8
5 7 2 8 -6 3 -9 -5 -11 -4 -6 3 5 9 13 8 30 -3 12 -8 26 -12 30 -8 4 5 6 1 4
-7 -2 -10 5 -14 24 -14 15 1 25 -2 22 -7 -2 -4 -11 -6 -18 -3 -8 3 -17 1 -21
-5 -3 -7 0 -8 9 -5 9 4 16 1 16 -6 0 -10 3 -10 15 0 9 7 18 10 22 6 3 -3 1 -6
-6 -6 -9 0 -9 -4 1 -14 9 -10 15 -11 20 -2 6 8 8 8 8 -1 0 -7 7 -13 16 -13 9
0 12 -5 8 -12 -4 -7 -3 -8 4 -4 6 4 9 14 6 24 -5 16 -5 16 6 0 6 -10 18 -15
28 -12 9 3 6 -1 -7 -9 -20 -12 -21 -15 -7 -20 10 -4 15 -3 11 3 -3 6 -1 10 4
10 6 0 11 -5 11 -11 0 -8 6 -7 17 2 9 8 14 9 10 3 -4 -7 0 -15 9 -18 22 -9 26
-8 18 5 -5 8 -1 8 13 0 11 -6 23 -8 27 -6 3 3 2 -1 -4 -7 -16 -19 -11 -32 7
-17 15 12 16 12 10 -3 -4 -12 -2 -15 8 -12 17 7 47 -20 37 -31 -4 -5 -1 -5 6
-1 9 6 10 11 3 20 -8 9 -7 13 4 13 8 0 12 -4 9 -8 -2 -4 2 -14 10 -22 8 -8 12
-18 8 -22 -4 -5 -1 -5 6 -1 11 6 11 11 0 24 -9 12 -7 12 9 -2 13 -10 20 -23
16 -29 -3 -6 -1 -7 5 -3 6 4 8 14 5 24 -4 13 -2 13 10 -3 8 -11 14 -22 12 -26
-6 -9 29 -7 42 3 8 7 10 3 6 -11 -3 -13 -1 -21 6 -21 7 0 9 4 6 10 -3 5 -2 10
2 10 5 0 14 -9 21 -20 12 -20 47 -17 35 4 -4 6 1 5 10 -3 13 -10 15 -17 6 -27
-14 -17 -5 -18 23 -3 17 9 20 9 15 -3 -3 -8 1 -15 9 -15 7 0 11 4 8 8 -2 4 0
11 6 14 6 4 10 3 9 -2 -3 -20 2 -29 21 -30 13 -1 18 2 13 10 -3 7 3 4 14 -6
11 -9 22 -14 26 -11 4 4 4 -3 2 -16 -4 -21 -3 -21 13 -7 17 15 19 15 34 -2 9
-11 14 -22 11 -25 -10 -10 7 -7 30 6 20 10 21 10 8 -6 -8 -9 -11 -19 -7 -23 3
-3 6 -1 6 7 0 10 4 10 17 -1 11 -10 14 -10 9 -1 -4 6 -2 12 3 12 6 0 11 -4 11
-10 0 -5 8 -10 18 -10 14 0 15 -2 2 -10 -8 -5 -10 -10 -4 -10 6 0 14 3 18 7 9
9 36 13 35 5 -1 -4 -1 -14 0 -22 1 -13 2 -13 11 0 8 12 10 12 10 1 0 -11 5
-10 23 5 12 10 17 12 10 5 -9 -11 -9 -17 3 -28 7 -8 19 -11 25 -7 7 4 18 -1
26 -11 7 -11 13 -13 13 -7 0 7 5 12 11 12 6 0 8 -9 4 -22 -3 -13 -3 -18 2 -12
9 12 65 26 58 14 -6 -9 27 -35 45 -35 8 0 21 -6 28 -15 12 -13 13 -12 7 5 -5
15 -3 17 6 8 6 -6 18 -9 25 -6 8 3 14 0 14 -7 0 -6 4 -8 10 -5 6 3 7 -1 4 -9
-3 -9 -1 -16 5 -16 6 0 11 8 12 18 0 13 2 13 9 -4 5 -12 14 -25 21 -30 7 -4
10 -3 5 4 -3 6 -2 13 4 17 5 3 10 -1 10 -9 0 -20 17 -29 26 -15 4 8 3 9 -4 5
-7 -4 -12 -3 -12 2 0 6 7 13 16 16 8 3 12 2 9 -4 -3 -5 4 -14 15 -20 12 -7 18
-16 13 -23 -4 -7 6 -4 21 7 16 10 26 14 23 8 -4 -5 5 -14 20 -21 21 -10 29 -9
43 4 9 8 21 15 26 15 5 0 2 -4 -6 -10 -8 -5 -11 -12 -8 -15 4 -4 13 -3 20 1
15 10 38 14 38 7 0 -2 -5 -14 -11 -26 -8 -16 -3 -13 16 8 14 17 24 24 20 18
-7 -14 7 -18 19 -6 17 17 56 0 51 -22 -1 -5 0 -7 2 -2 3 4 10 4 16 0 7 -3 3 4
-8 16 -14 16 -15 22 -5 19 8 -2 21 -10 28 -18 8 -8 11 -9 7 -2 -6 12 -2 13 60
16 17 0 35 4 42 9 6 4 15 2 19 -4 5 -8 3 -9 -6 -4 -9 5 -11 4 -6 -4 6 -9 11
-9 21 -1 10 8 15 8 20 -1 6 -8 10 -7 17 5 5 9 13 14 19 11 11 -8 41 20 31 29
-3 4 2 4 13 0 16 -6 18 -5 10 7 -5 8 -2 6 8 -4 12 -14 17 -15 17 -5 0 10 10
13 30 12 16 -1 27 2 24 7 -8 13 10 11 25 -3 11 -11 11 -9 1 11 -6 13 -8 21 -2
17 5 -3 22 4 36 15 16 13 26 16 24 8 -2 -9 8 -14 29 -14 18 -1 30 1 27 4 -3 3
-10 6 -15 6 -5 0 -8 5 -6 10 1 6 7 8 12 6 6 -2 15 -4 20 -5 6 -1 17 -6 25 -11
13 -8 13 -7 1 8 -8 10 -11 21 -7 24 10 10 36 12 36 3 0 -4 7 -10 15 -14 12 -4
13 -2 6 13 -9 16 -7 17 16 13 18 -3 24 -1 19 7 -5 7 1 11 14 11 14 0 19 4 14
12 -5 7 -2 9 8 5 9 -3 21 0 27 6 9 9 11 8 6 -4 -4 -10 0 -16 9 -16 8 0 12 6 9
14 -4 9 0 11 13 6 17 -6 18 -5 4 12 -11 14 -11 17 -1 11 8 -5 17 -3 23 5 7 10
8 7 4 -11 -3 -14 -3 -20 0 -13 3 7 11 11 17 9 7 -1 9 -1 5 1 -5 3 -8 9 -8 14
0 10 28 7 50 -6 9 -5 7 1 -5 15 -11 13 -14 20 -6 15 9 -5 19 -2 28 10 7 11 13
14 13 9 0 -6 -5 -15 -11 -21 -8 -8 -7 -13 2 -18 8 -5 10 -4 5 3 -4 7 -1 12 8
12 9 0 13 7 11 19 -4 19 17 23 32 6 4 -4 2 -5 -6 0 -10 5 -12 4 -7 -4 10 -16
29 -2 21 17 -4 12 -1 12 16 -4 12 -10 19 -14 16 -7 -4 6 -3 14 3 18 6 4 7 11
4 17 -4 7 -2 8 4 4 6 -4 8 -14 5 -23 -4 -11 -3 -14 5 -9 7 4 12 13 12 20 0 8
8 20 18 27 15 13 16 12 3 -3 -9 -12 -10 -18 -2 -18 6 0 14 6 17 14 3 8 12 12
20 9 9 -3 13 0 11 8 -2 8 -2 11 0 6 3 -4 9 -5 14 -2 5 4 7 0 6 -7 -2 -7 -2
-10 0 -5 3 4 9 5 14 2 5 -4 6 1 3 9 -3 8 3 19 15 26 16 8 21 8 22 -2 0 -7 5
-3 11 9 10 21 11 21 27 5 9 -10 15 -16 14 -13 -2 2 3 11 10 20 11 14 10 15 -8
1 -19 -14 -19 -14 -6 3 8 10 21 15 32 12 11 -4 21 1 28 12 10 17 10 17 11 -2
l1 -20 8 20 c5 11 6 24 4 28 -3 5 4 4 16 -3 12 -6 18 -16 15 -22 -4 -6 -3 -8
4 -5 5 4 8 17 5 30 -3 12 -1 18 4 12 16 -19 31 -15 26 8 -5 21 -5 21 9 3 15
-19 16 -19 26 1 6 11 8 23 4 27 -3 4 1 4 11 0 15 -5 15 -9 5 -23 -12 -14 -11
-15 5 -2 14 11 15 16 5 29 -11 13 -11 14 1 8 8 -5 17 -3 23 5 8 11 9 10 4 -3
-3 -10 0 -20 6 -24 7 -5 8 -2 3 6 -6 10 -3 12 13 8 15 -4 19 -2 15 8 -3 8 -10
11 -16 7 -6 -3 -7 -1 -3 6 6 9 11 9 24 -1 13 -11 15 -10 9 4 -3 10 -1 20 5 24
6 4 8 3 5 -3 -4 -6 -1 -16 7 -22 11 -9 13 -6 11 14 -2 14 1 23 6 19 5 -3 7
-10 4 -15 -3 -5 1 -6 9 -3 9 3 14 9 11 14 -8 14 41 30 54 17 9 -9 10 -7 5 8
-7 18 -6 19 11 5 15 -12 17 -12 10 -1 -6 11 -4 13 10 7 15 -5 16 -4 5 9 -17
20 -6 19 16 -2 16 -16 16 -16 10 3 -4 13 0 23 14 32 11 7 20 8 20 3 0 -5 -6
-11 -12 -14 -7 -2 -10 -8 -5 -12 9 -11 37 26 30 39 -4 5 -1 6 5 2 23 -14 51
-15 46 -2 -3 7 2 19 11 26 13 11 18 10 31 -6 9 -10 13 -13 9 -7 -3 7 -1 21 5
30 11 17 11 17 6 -1 -6 -16 -4 -17 9 -6 8 7 15 9 15 5 0 -4 6 -3 13 3 6 6 17
12 22 14 6 1 9 6 7 11 -2 7 29 11 57 8 7 -2 10 2 6 8 -8 14 7 14 23 1 9 -7 9
-7 2 2 -15 18 -12 31 5 24 10 -3 15 1 15 12 0 10 3 13 8 7 4 -5 13 -11 21 -13
12 -3 12 0 1 13 -11 13 -10 15 4 9 9 -3 22 -1 30 5 7 6 15 8 18 5 3 -3 5 2 4
12 0 9 7 18 17 19 9 2 15 -1 11 -6 -3 -5 -11 -6 -17 -3 -7 4 -8 3 -4 -1 9 -11
37 -16 36 -7 -4 28 2 34 16 16 15 -18 15 -18 8 0 -4 13 -3 17 5 12 8 -5 10 -1
5 11 -6 16 -5 17 12 3 15 -12 17 -12 10 -1 -6 11 -4 13 8 8 12 -4 17 -1 17 10
0 14 2 14 15 -3 13 -18 14 -18 8 6 -6 22 -5 23 9 12 11 -9 18 -10 23 -2 3 6
11 7 17 4 7 -4 8 -2 4 5 -4 6 -12 9 -17 6 -5 -3 -6 1 -3 9 5 14 8 14 21 1 18
-19 24 -19 17 0 -4 9 0 15 9 15 8 0 18 6 20 13 4 9 6 9 6 0 1 -7 6 -13 12 -13
5 0 7 5 4 10 -4 6 5 10 20 10 15 0 24 4 20 10 -6 10 7 14 34 11 7 -2 10 2 6 8
-3 6 1 11 11 11 9 0 23 8 31 18 8 10 11 11 7 2 -7 -13 -6 -13 10 -1 9 8 15 20
12 27 -3 8 0 11 9 7 8 -3 12 -9 9 -14 -3 -5 0 -9 5 -9 6 0 11 8 11 18 0 9 4
13 8 7 10 -14 32 -17 32 -5 0 5 -4 10 -10 10 -19 0 -10 16 10 17 11 1 18 -2
15 -7 -3 -6 1 -7 9 -4 9 3 14 10 11 14 -2 4 5 16 18 26 12 10 16 12 10 4 -20
-22 -15 -33 8 -16 12 8 28 12 35 9 8 -3 14 0 14 7 0 6 -4 8 -10 5 -15 -9 -12
11 4 24 11 9 16 9 22 0 5 -8 3 -9 -6 -4 -9 5 -11 4 -6 -4 4 -6 12 -9 17 -5 5
3 6 10 3 16 -4 6 1 8 16 3 15 -5 20 -4 16 4 -4 6 0 11 9 11 9 0 13 5 10 10 -9
14 8 12 24 -3 11 -10 11 -8 1 12 -10 19 -10 22 2 15 23 -14 36 -13 54 7 9 10
24 19 32 19 9 0 12 6 8 16 -6 15 -4 15 17 1 21 -14 23 -13 25 6 1 18 -1 19 -9
7 -7 -10 -9 -11 -7 -2 2 8 6 12 10 10 3 -2 15 6 27 16 12 11 21 16 21 11 0 -4
6 -3 13 2 6 6 20 9 30 8 14 -3 16 1 11 18 -6 22 -6 22 10 2 16 -20 16 -20 22
2 5 20 9 21 28 11 20 -11 20 -10 6 7 -12 15 -12 17 -1 10 11 -6 13 -4 8 11 -7
18 -6 18 7 1 8 -10 16 -13 18 -7 4 13 48 22 48 9 0 -5 9 0 20 11 12 12 26 18
32 14 7 -4 8 -3 4 4 -5 9 -13 9 -27 2 -11 -6 -19 -7 -19 -1 0 5 11 12 25 15
14 4 23 11 20 16 -3 6 1 7 10 3 14 -5 14 -8 3 -15 -10 -8 -10 -9 2 -5 8 2 14
10 12 16 -1 6 3 18 10 25 11 11 15 11 23 -1 10 -13 13 -12 26 4 13 17 13 17
-6 3 -19 -14 -19 -14 -6 3 15 18 15 18 29 0 14 -17 14 -17 9 5 -3 15 -1 22 10
22 8 0 11 -5 7 -12 -4 -7 -3 -8 5 -4 6 4 9 11 6 16 -3 4 2 13 10 20 12 10 16
9 21 -4 5 -13 8 -13 20 -1 20 19 17 30 -3 14 -15 -11 -15 -10 1 8 14 17 23 20
36 13 21 -11 46 12 34 32 -6 10 -3 9 9 -1 15 -12 17 -11 17 3 0 9 5 16 11 16
5 0 7 -6 3 -13 -5 -9 -4 -9 6 0 7 6 20 9 29 6 11 -4 10 -1 -4 10 -18 14 -18
15 8 12 25 -3 55 24 42 37 -3 3 2 5 10 5 11 0 12 -4 5 -11 -5 -5 -10 -15 -10
-20 0 -6 4 -5 9 2 4 7 14 14 22 16 8 1 23 8 34 15 15 9 16 11 3 7 -10 -3 -18
-1 -18 4 0 6 9 10 21 10 12 0 18 4 13 11 -4 7 -1 10 7 7 8 -3 13 -11 11 -17
-1 -7 2 -10 8 -6 6 3 7 11 4 17 -5 8 -1 9 11 4 15 -6 16 -4 4 10 -11 14 -10
15 7 12 12 -2 18 2 16 10 -1 8 2 11 8 7 6 -4 20 5 31 19 17 21 24 24 40 16 16
-9 21 -7 28 12 9 25 19 27 33 6 7 -10 8 -9 4 5 -3 9 -1 17 5 17 6 0 7 6 3 13
-5 8 -2 8 9 -2 15 -12 17 -11 17 3 0 10 5 14 10 11 6 -3 10 -1 10 4 0 6 4 11
10 11 5 0 6 -8 3 -18 -4 -9 8 -1 25 18 28 30 34 33 43 20 9 -13 10 -12 5 2 -3
10 -1 20 5 23 5 4 6 11 3 17 -4 7 -2 8 5 4 6 -4 9 -11 6 -16 -3 -4 2 -10 10
-13 9 -4 12 -1 9 7 -3 8 0 17 7 22 8 5 10 3 4 -6 -6 -9 -4 -11 4 -6 7 5 10 14
7 22 -4 10 0 11 19 4 21 -8 23 -6 20 11 -4 18 -2 19 12 7 14 -11 16 -11 8 1
-6 11 -4 13 10 7 15 -5 16 -4 6 8 -10 12 -9 14 6 10 12 -3 21 3 28 18 6 13 16
24 23 24 6 1 17 2 23 3 5 0 8 5 5 9 -3 5 1 9 9 9 13 0 13 -3 0 -17 -13 -14
-13 -17 0 -17 8 0 12 4 10 8 -7 10 21 30 31 21 4 -4 2 1 -5 11 -13 16 -12 17
12 8 22 -9 25 -8 23 13 -2 18 2 22 25 20 19 -1 26 2 23 11 -3 7 0 16 7 21 7 4
10 3 5 -4 -3 -6 -1 -14 6 -18 7 -4 10 -4 6 1 -14 15 11 43 34 39 13 -2 17 -2
11 2 -7 3 -13 10 -13 15 0 5 10 4 23 -2 19 -11 20 -10 10 2 -8 10 -9 19 -1 29
8 12 9 12 4 -3 -3 -9 -1 -17 4 -17 6 0 10 6 10 13 0 8 4 7 10 -3 8 -13 10 -13
10 1 0 9 14 28 30 42 17 15 30 24 30 20 0 -4 -12 -18 -27 -31 -27 -22 -27 -23
-2 -8 14 9 29 13 33 9 4 -5 7 -3 6 2 -5 22 1 33 23 40 12 4 25 7 29 6 4 0 4 7
1 17 -6 14 -4 15 9 5 17 -15 29 -7 21 13 -3 10 2 14 18 14 19 0 21 2 9 10 -13
8 -13 10 3 11 9 1 23 2 30 3 6 1 11 11 11 24 -1 19 1 20 14 10 13 -11 14 -11
7 1 -6 11 -4 13 8 8 10 -3 17 -2 17 2 0 5 -6 11 -12 14 -10 3 -10 8 1 18 9 9
11 9 7 2 -10 -18 6 -16 30 3 15 13 16 15 2 10 -11 -3 -15 -1 -12 9 6 14 21 15
41 2 13 -8 12 10 -1 32 -7 10 -5 12 4 6 9 -6 10 -2 5 16 -7 24 -7 24 9 4 15
-19 16 -19 9 -1 -4 13 -3 17 5 12 6 -3 13 -2 16 3 4 5 1 13 -5 17 -8 5 -9 3
-4 -6 5 -9 4 -11 -4 -6 -6 4 -9 12 -5 17 3 5 9 7 14 4 5 -3 11 -1 15 5 3 5 0
10 -7 10 -10 0 -10 2 1 9 8 5 11 16 8 25 -4 10 2 22 18 32 22 14 38 43 17 30
-4 -2 -8 4 -8 14 0 10 3 17 7 14 4 -2 12 3 19 11 10 12 10 18 -1 32 -10 11
-10 14 -1 9 16 -9 16 6 0 23 -11 10 -10 11 5 6 9 -4 17 -12 17 -18 0 -6 3 -7
7 -4 3 4 -2 16 -12 27 -17 19 -17 19 6 15 20 -4 22 -2 9 8 -16 13 -24 51 -9
41 5 -3 9 8 9 23 0 16 8 39 17 52 9 14 11 21 5 17 -7 -4 -12 -2 -12 4 0 6 -5
8 -12 4 -10 -6 -10 -5 -1 8 7 8 9 19 5 23 -4 5 -1 5 6 1 7 -4 10 -11 8 -15 -3
-4 1 -8 8 -8 7 0 13 6 13 13 0 7 -4 11 -9 8 -4 -3 -9 2 -9 10 -2 25 -4 30 -14
46 -8 13 -7 13 8 1 9 -7 15 -17 12 -21 -3 -5 0 -12 6 -16 7 -4 9 -3 5 4 -3 6
-1 14 5 17 7 5 3 14 -10 26 -12 11 -21 25 -21 31 0 7 6 4 13 -7 9 -11 16 -14
21 -7 3 6 1 14 -4 17 -7 5 -5 12 7 22 16 13 16 14 1 9 -10 -3 -20 0 -24 6 -5
7 -2 8 6 3 10 -6 12 -3 7 14 -4 18 -2 21 11 16 14 -5 14 -4 -1 13 -19 21 -22
32 -6 32 5 0 7 -5 3 -12 -4 -7 -3 -8 5 -4 6 4 9 11 6 16 -3 4 1 11 7 13 7 3 2
6 -12 7 -14 1 -19 4 -12 7 19 7 14 23 -5 17 -15 -5 -15 -4 -3 4 8 7 19 7 25 2
7 -6 11 -2 11 10 0 10 -3 17 -7 14 -4 -2 -10 3 -13 12 -8 21 -8 24 5 24 5 0 7
-4 4 -10 -3 -6 1 -7 10 -4 14 6 14 8 -2 21 -17 14 -17 14 0 9 9 -3 17 -1 17 4
0 6 -6 10 -13 10 -8 0 -14 6 -14 14 0 8 6 12 12 10 7 -3 11 7 11 26 0 16 -3
30 -7 30 -4 0 -10 7 -13 16 -5 14 -4 15 9 4 13 -11 14 -10 8 6 -6 17 -5 18 13
4 15 -11 16 -11 7 0 -15 16 -17 34 -5 26 5 -3 9 1 9 8 0 7 -6 13 -13 13 -7 0
-11 -4 -8 -8 2 -4 0 -10 -5 -13 -5 -4 -8 2 -6 11 2 10 4 22 4 26 1 5 5 6 10 2
6 -3 8 3 6 15 -2 11 0 22 6 25 12 8 12 25 -1 25 -6 0 -9 -4 -8 -9 2 -5 -1 -8
-7 -7 -5 0 -10 6 -11 13 -1 7 2 11 8 10 13 -2 20 31 8 38 -5 3 -2 18 6 34 15
30 9 66 -9 54 -6 -3 -7 -1 -3 6 4 6 12 9 17 6 5 -4 9 -1 9 4 0 6 -3 11 -8 11
-4 0 -8 14 -8 30 -1 17 3 30 8 30 5 0 7 -4 4 -9 -3 -5 1 -11 9 -14 12 -5 12
-2 3 18 -6 13 -14 23 -17 20 -4 -2 -7 7 -7 21 0 14 6 24 14 24 12 0 12 -3 1
-17 -11 -15 -11 -16 1 -6 7 7 15 23 17 35 2 16 0 19 -6 9 -7 -10 -13 -11 -27
-1 -16 10 -16 11 -1 6 9 -3 17 -1 17 4 0 6 -4 10 -9 10 -14 0 -7 30 9 40 8 5
17 7 20 5 3 -2 5 70 5 160 0 90 -3 158 -7 152 -6 -9 -8 -9 -8 0 0 6 4 14 8 17
5 3 8 387 8 854 -1 701 -3 852 -15 865 -7 9 -18 14 -25 10 -7 -4 -6 -1 1 9 7
8 9 19 5 23 -4 5 -2 5 4 2 6 -3 11 0 11 7 0 8 -7 12 -15 9 -12 -5 -12 -2 -3
15 13 25 14 35 3 28 -5 -3 -9 1 -9 9 0 20 14 19 26 -2 6 -10 10 -13 10 -8 0
17 -26 45 -34 37 -5 -4 -5 -1 -1 6 4 7 2 21 -5 30 -10 12 -7 11 11 -3 l24 -20
-18 29 c-10 16 -14 26 -10 23 5 -3 16 2 24 11 13 14 12 15 -2 10 -20 -8 -31
15 -15 32 8 9 9 11 1 7 -15 -9 -27 34 -13 48 7 7 8 4 4 -7 -4 -10 -3 -18 2
-18 12 0 11 51 -2 70 -11 17 -8 56 7 84 7 13 7 16 -1 12 -7 -5 -11 2 -10 21 3
41 0 55 -9 49 -4 -2 -8 4 -8 14 0 18 1 18 20 2 18 -16 18 -16 5 6 -8 12 -17
22 -21 22 -4 0 -4 8 -1 18 6 15 5 16 -13 2 -15 -11 -16 -11 -6 0 16 18 16 33
0 24 -10 -6 -10 -4 0 7 6 7 12 17 12 22 0 4 -6 5 -12 1 -10 -5 -10 -4 -1 6 8
9 9 19 2 32 -5 10 -6 18 -2 18 4 0 1 5 -7 10 -10 6 -11 10 -2 10 6 0 12 7 12
16 0 9 5 12 13 8 10 -6 10 -4 0 7 -16 16 -17 33 -1 23 7 -5 8 -3 2 7 -5 8 -9
17 -9 21 0 3 -3 10 -7 14 -4 3 -6 -3 -3 -14 2 -12 1 -24 -3 -26 -4 -3 -8 11
-8 29 0 18 4 32 7 29 4 -2 11 1 15 7 4 7 3 9 -3 6 -6 -4 -13 2 -16 13 -3 12 1
23 10 29 13 7 13 9 -2 15 -14 5 -15 9 -5 21 10 12 9 16 -4 21 -9 3 -16 12 -16
20 0 8 -4 14 -8 14 -4 0 -8 9 -8 19 0 14 4 17 12 11 12 -11 24 -3 24 14 0 7
-3 7 -8 0 -5 -9 -11 -8 -20 2 -9 10 -9 14 -1 14 6 0 1 9 -12 20 -13 11 -18 19
-10 18 7 -2 16 3 19 11 2 8 0 11 -6 7 -6 -4 -8 2 -5 16 4 19 3 20 -6 8 -8 -11
-9 -7 -6 20 2 19 -1 40 -7 47 -6 7 -7 13 -2 13 4 0 0 6 -10 13 -16 12 -16 14
-2 14 9 0 17 -4 17 -9 1 -4 2 -12 3 -18 0 -5 8 -15 16 -22 12 -11 12 -11 3 2
-6 8 -9 23 -8 33 2 9 -1 17 -6 17 -6 0 -7 4 -4 10 4 6 -1 7 -12 4 -17 -5 -17
-5 0 9 16 13 16 15 2 21 -11 4 -14 2 -9 -6 4 -6 3 -8 -3 -5 -5 3 -8 20 -7 36
1 17 -2 31 -7 31 -5 0 -9 5 -9 11 0 5 4 8 8 5 5 -3 9 1 9 9 0 8 -3 13 -6 12
-3 -1 -17 6 -31 16 -15 11 -19 17 -10 17 8 0 0 10 -17 21 -18 12 -33 23 -33
26 0 3 11 -2 25 -11 33 -22 43 -20 17 3 -12 10 -19 21 -15 24 3 4 -4 5 -15 2
-12 -2 -25 1 -28 7 -4 7 -2 8 4 4 7 -4 12 -2 12 4 0 6 5 8 13 4 8 -5 7 -2 -2
9 -11 14 -16 15 -29 5 -13 -10 -14 -10 -8 0 4 7 2 12 -5 12 -7 0 -9 8 -6 21 5
17 2 20 -13 16 -12 -3 -17 0 -14 8 3 7 -2 15 -11 19 -9 3 -13 12 -10 18 4 7
-1 4 -10 -7 -17 -20 -17 -20 -10 4 6 20 4 23 -10 17 -16 -6 -16 -4 -4 10 13
16 12 16 -9 5 -22 -12 -23 -11 -18 7 6 17 3 20 -19 18 -14 -2 -28 1 -32 7 -3
6 -1 7 5 3 7 -4 12 -2 12 3 0 6 -9 11 -21 11 -11 0 -17 5 -14 10 3 6 -2 10
-11 10 -10 0 -14 3 -11 7 4 3 -2 13 -13 20 -11 8 -17 20 -14 26 5 8 3 8 -7 0
-18 -17 -32 -16 -26 1 4 10 1 13 -8 9 -8 -3 -12 -10 -8 -17 4 -6 -1 -5 -10 2
-9 8 -15 19 -14 25 1 7 -4 11 -12 9 -9 -2 -11 3 -7 14 5 14 4 15 -9 4 -12 -10
-15 -10 -15 4 0 9 -5 16 -11 16 -5 0 -7 5 -3 12 4 7 3 8 -5 4 -8 -6 -9 -12 -2
-20 8 -9 7 -13 -2 -13 -8 0 -14 6 -15 14 -1 7 -3 20 -4 28 -1 8 -5 12 -9 10
-3 -3 -12 1 -18 9 -7 8 -22 12 -34 9 -16 -3 -18 -2 -9 5 11 7 8 11 -12 16 -14
3 -25 12 -23 18 1 7 -7 12 -18 13 -11 0 -19 6 -18 13 2 6 -2 12 -7 12 -13 0
-13 -13 1 -27 8 -8 7 -13 -2 -18 -8 -5 -10 -4 -5 3 4 7 -9 19 -34 32 -22 11
-40 23 -40 25 0 3 14 -1 30 -10 17 -9 30 -11 30 -5 0 5 -7 10 -15 10 -8 0 -15
5 -15 12 0 6 -3 9 -6 5 -4 -3 -20 1 -36 9 -16 9 -37 13 -45 9 -14 -5 -14 -3
-2 11 13 16 11 17 -13 12 -15 -3 -25 -2 -23 3 3 4 0 18 -5 31 l-11 23 5 -25
c5 -25 5 -25 -12 -4 -26 31 -100 75 -107 64 -3 -6 -12 -10 -18 -9 -8 0 -8 2 1
6 9 3 7 10 -9 24 -26 23 -36 25 -19 4 11 -13 10 -14 -4 -9 -14 5 -20 16 -18
35 0 3 -13 4 -29 3 -20 -1 -29 3 -29 13 0 12 3 13 14 4 11 -9 16 -9 22 0 4 7
3 9 -4 5 -6 -3 -13 -2 -17 4 -4 7 -12 7 -25 0 -13 -7 -21 -5 -31 8 -13 15 -12
16 4 3 15 -12 17 -11 17 2 0 16 -16 17 -37 4 -7 -4 -14 1 -18 13 -4 11 -12 20
-18 19 -25 -3 -38 1 -32 11 3 6 0 10 -7 10 -9 0 -9 3 2 10 8 5 10 10 5 10 -6
0 -16 -5 -23 -12 -9 -9 -12 -8 -12 4 0 21 -24 30 -40 15 -9 -9 -11 -9 -7 -1 7
13 -19 27 -33 19 -4 -3 -13 2 -20 10 -7 8 -16 13 -20 10 -4 -2 -6 7 -4 21 1
14 0 23 -3 20 -4 -3 -13 0 -21 7 -13 9 -14 9 -8 0 4 -7 3 -13 -2 -13 -6 0 -12
7 -16 15 -3 8 -9 14 -13 13 -18 -5 -53 14 -46 25 4 7 -2 5 -12 -3 -11 -9 -16
-10 -11 -2 5 8 -2 12 -26 13 -30 0 -31 1 -10 10 19 7 23 29 6 29 -3 0 -2 -4 1
-10 3 -5 -4 -10 -16 -10 -17 0 -19 3 -10 14 9 11 6 13 -19 10 -23 -3 -29 0
-24 9 5 7 0 5 -11 -3 -11 -9 -16 -10 -11 -2 7 11 -5 17 -28 13 -5 -1 -3 5 4
14 7 8 10 18 6 22 -3 3 -6 1 -6 -5 0 -7 -7 -12 -16 -12 -9 0 -12 5 -8 13 5 7
1 7 -12 -3 -10 -8 -16 -11 -12 -6 8 10 -27 49 -47 52 -8 1 -13 -2 -9 -7 3 -5
10 -6 16 -3 7 4 8 2 4 -4 -9 -15 -47 7 -40 23 3 5 -2 1 -11 -10 -17 -20 -17
-20 -10 3 6 21 4 23 -14 17 -19 -6 -26 2 -23 26 1 4 -7 5 -18 2 -11 -3 -17
-10 -13 -16 4 -6 1 -7 -7 -2 -10 6 -9 11 5 22 18 12 18 13 -2 13 -12 0 -24 -6
-27 -12 -3 -7 -3 0 -1 15 3 23 1 26 -10 17 -10 -9 -16 -7 -25 7 -11 17 -11 17
-6 0 3 -10 2 -16 -3 -12 -5 3 -12 -1 -15 -7 -3 -7 -3 -1 -1 13 3 22 0 26 -16
22 -11 -3 -19 0 -19 6 0 7 4 10 8 7 5 -3 9 1 9 8 0 11 -4 12 -18 3 -10 -6 -16
-14 -13 -18 2 -4 -6 -5 -18 -1 l-22 5 22 8 c30 11 28 19 -3 13 -18 -3 -23 -1
-19 10 3 9 -1 13 -13 13 -11 -1 -17 4 -15 13 2 11 -1 11 -11 -2 -17 -22 -28
-23 -21 -3 4 8 2 15 -4 15 -6 0 -12 -5 -14 -12 -3 -7 -7 -5 -11 6 -5 11 -3 15
5 10 7 -5 8 -3 3 5 -4 7 -18 11 -32 8 -13 -2 -21 -2 -18 1 7 7 -25 42 -39 42
-6 0 -4 -6 4 -13 8 -7 16 -19 18 -27 1 -10 -3 -8 -13 5 -9 11 -20 20 -25 20
-5 0 -19 8 -30 18 -23 20 -45 23 -34 5 4 -7 3 -9 -1 -5 -11 10 -16 39 -6 32 4
-2 8 3 8 11 0 10 -4 11 -11 4 -14 -14 -29 -13 -20 3 4 6 4 9 -1 5 -4 -4 -14
-3 -22 4 -11 9 -12 7 -7 -8 3 -11 2 -15 -3 -9 -4 6 -15 11 -23 13 -8 2 -26 15
-40 31 -15 17 -34 27 -47 26 -17 -2 -23 3 -23 19 0 15 -3 17 -9 8 -6 -11 -11
-10 -25 3 -15 15 -20 12 -17 -8 1 -5 -9 0 -23 10 -19 14 -22 21 -13 32 10 12
9 12 -9 3 -22 -12 -34 -7 -50 23 -8 14 -21 20 -43 19 -17 -1 -28 2 -25 7 3 5
-5 9 -18 9 -18 0 -20 2 -8 10 8 5 10 10 4 10 -5 0 -16 -6 -23 -12 -8 -7 -11
-8 -8 -2 8 14 -38 35 -58 28 -18 -7 -20 17 -4 33 9 9 7 11 -7 9 -11 -2 -28 1
-39 7 -27 15 -46 17 -39 6 3 -5 1 -9 -5 -9 -5 0 -13 9 -16 20 -6 20 -15 24
-47 21 -10 -1 -18 4 -18 11 0 9 -3 9 -10 -2 -8 -13 -10 -12 -10 3 0 10 -4 15
-10 12 -5 -3 -10 -1 -10 4 0 6 5 11 12 11 6 0 9 2 6 5 -10 10 -38 -7 -32 -19
4 -6 -5 1 -20 17 -30 30 -46 37 -25 10 13 -16 12 -17 -3 -4 -10 7 -18 21 -19
30 0 12 -2 11 -9 -4 -8 -19 -9 -19 -9 -1 -1 11 -4 16 -8 13 -3 -4 -17 0 -29 8
-21 13 -24 13 -34 -3 -8 -14 -9 -12 -6 10 3 15 0 31 -6 34 -6 4 -8 2 -5 -3 4
-6 -2 -13 -14 -16 -16 -4 -18 -3 -9 8 8 9 6 14 -5 19 -11 4 -14 2 -10 -7 4 -6
-3 -1 -16 13 l-22 25 8 -25 c7 -23 7 -23 -9 -7 -10 9 -21 15 -26 12 -10 -6 -8
15 4 35 7 12 6 13 -5 3 -16 -15 -59 -17 -59 -3 0 6 -5 10 -11 10 -5 0 -7 -4
-4 -10 3 -5 1 -10 -5 -10 -6 0 -8 11 -4 28 6 25 5 26 -8 8 -12 -15 -17 -16
-23 -6 -6 9 -4 11 6 5 12 -8 12 -6 0 9 -10 12 -16 13 -21 6 -11 -17 -16 -17
-37 3 -11 9 -23 14 -28 10 -4 -5 -4 3 0 17 7 22 6 23 -9 11 -15 -12 -21 -8
-17 12 1 5 -3 6 -9 2 -6 -3 -8 -11 -5 -16 4 -5 1 -9 -4 -9 -6 0 -11 6 -11 14
0 9 -7 12 -22 9 -19 -4 -20 -3 -8 6 13 10 13 11 0 12 -8 1 -18 1 -22 0 -5 0
-8 4 -8 9 0 5 -3 9 -7 9 -21 -3 -32 3 -38 22 -4 12 -10 17 -14 12 -3 -5 -15
-13 -25 -16 -17 -7 -17 -6 -5 10 9 11 10 14 2 9 -7 -4 -13 -3 -13 1 0 5 -12 8
-27 7 -15 0 -38 5 -52 12 -13 7 -29 10 -35 7 -6 -3 -7 -2 -3 3 11 12 40 11 50
-1 5 -6 7 -4 4 5 -2 8 -10 14 -17 12 -7 -1 -19 3 -28 10 -12 10 -14 10 -8 1 4
-8 2 -13 -8 -13 -8 0 -18 9 -21 20 -5 15 -15 20 -41 20 -25 0 -33 4 -28 13 4
6 4 9 -1 5 -4 -4 -21 2 -38 14 -31 23 -71 32 -60 15 3 -5 0 -7 -8 -5 -8 3 -13
10 -12 15 1 5 -4 10 -12 10 -7 0 -11 -7 -8 -16 4 -13 3 -13 -5 -2 -6 8 -17 11
-25 8 -10 -4 -13 2 -11 21 2 26 2 26 -12 8 -13 -19 -20 -11 -15 17 1 5 -3 6
-8 3 -5 -4 -12 -2 -16 4 -10 16 -25 2 -19 -18 3 -9 -1 -6 -9 8 -9 14 -13 29
-10 34 4 5 1 6 -5 2 -6 -4 -9 -14 -6 -24 3 -9 -2 -6 -10 8 -9 14 -15 19 -16
11 0 -11 -4 -10 -16 5 -8 10 -13 14 -10 7 4 -6 2 -15 -4 -18 -6 -4 -9 -1 -8 6
2 6 -3 14 -11 17 -9 3 -11 0 -6 -9 6 -11 5 -11 -5 -2 -7 6 -20 9 -29 6 -13 -4
-14 -3 -1 5 8 6 19 8 25 4 5 -3 3 3 -5 14 -22 29 -24 30 -17 12 4 -10 4 -18 0
-18 -3 0 -12 8 -20 18 -14 16 -14 16 -9 0 8 -26 -3 -22 -14 5 l-9 22 0 -24
c-1 -24 -2 -24 -15 -6 -8 11 -12 23 -10 27 9 14 -4 9 -20 -8 -15 -14 -16 -13
-16 6 0 19 -1 20 -16 6 -19 -20 -31 -21 -15 -2 9 11 8 15 -5 20 -9 3 -20 4
-25 0 -5 -3 -9 0 -9 5 0 6 -5 11 -11 11 -5 0 -7 -4 -4 -10 3 -5 1 -10 -4 -10
-6 0 -12 5 -12 10 -1 6 -2 14 -3 19 0 5 -4 13 -8 16 -4 4 -5 -5 -3 -21 2 -16
2 -23 -1 -16 -3 6 -10 10 -15 7 -5 -4 -6 1 -3 9 3 9 1 16 -6 16 -6 0 -8 5 -4
12 4 7 3 8 -4 4 -6 -4 -8 -14 -5 -23 6 -15 5 -16 -9 -3 -9 8 -13 20 -10 25 3
6 -2 4 -11 -4 -12 -9 -17 -10 -17 -2 0 7 -4 10 -9 6 -5 -3 -12 -1 -16 5 -4 7
-12 7 -25 0 -25 -14 -28 -13 -40 9 -9 18 -7 19 24 15 19 -2 37 0 40 4 3 5
-102 9 -233 9 -224 0 -238 -1 -250 -19 -11 -18 -11 -18 11 -4 22 14 24 14 24
-2 0 -12 -8 -17 -26 -16 -14 0 -29 -4 -33 -10 -9 -11 -5 4 9 39 3 8 1 15 -5
15 -6 0 -10 -3 -10 -7z m397 -28 c-3 -3 -9 2 -12 12 -6 14 -5 15 5 6 7 -7 10
-15 7 -18z m37 5 c3 -6 -1 -7 -9 -4 -18 7 -21 14 -7 14 6 0 13 -4 16 -10z
m583 -205 c-3 -3 -9 2 -12 12 -6 14 -5 15 5 6 7 -7 10 -15 7 -18z m-1552 -7
c4 -7 3 -8 -4 -4 -7 4 -12 2 -12 -5 0 -7 -3 -10 -6 -6 -6 5 3 27 11 27 2 0 7
-5 11 -12z m1753 -65 c2 -2 -1 -3 -7 -3 -6 0 -18 7 -26 16 -11 10 -16 11 -16
3 0 -7 -3 -10 -6 -6 -3 3 -3 11 1 17 5 8 13 6 28 -7 12 -10 24 -19 26 -20z
m15 -22 c4 -5 -3 -7 -14 -4 -23 6 -26 13 -6 13 8 0 17 -4 20 -9z m-2003 -18
c13 -16 12 -17 -3 -4 -14 11 -18 11 -18 1 0 -8 -3 -11 -6 -7 -5 5 3 27 10 27
2 0 10 -8 17 -17z m2073 9 c3 -5 -1 -9 -9 -9 -8 0 -15 4 -15 9 0 4 4 8 9 8 6
0 12 -4 15 -8z m-2217 -67 c0 -8 -4 -12 -9 -9 -5 3 -6 10 -3 15 9 13 12 11 12
-6z m2423 -24 c0 -5 -7 -12 -16 -15 -14 -5 -15 -4 -4 9 14 17 20 19 20 6z
m-2697 -91 c-3 -12 -8 -19 -11 -16 -5 6 5 36 12 36 2 0 2 -9 -1 -20z m3447
-271 c0 -5 -4 -9 -10 -9 -5 0 -9 6 -7 13 1 6 -4 11 -11 9 -8 -1 -11 2 -7 8 7
12 35 -5 35 -21z m92 -24 c10 6 10 5 1 -5 -9 -10 -15 -10 -26 -2 -8 7 -16 10
-19 7 -2 -3 -5 2 -5 10 0 13 3 13 18 -1 10 -9 23 -13 31 -9z m-4192 -5 c0 -5
-5 -10 -11 -10 -5 0 -7 5 -4 10 3 6 8 10 11 10 2 0 4 -4 4 -10z m-57 -34 c4
-11 1 -13 -10 -9 -12 5 -14 3 -8 -7 5 -9 4 -11 -4 -6 -9 6 -9 11 0 22 14 17
16 17 22 0z m4444 -72 c1 -15 1 -15 -3 -2 -3 10 -11 15 -20 11 -8 -3 -14 -1
-14 5 0 19 35 5 37 -14z m-4693 -65 c-3 -5 -10 -7 -15 -3 -5 3 -7 10 -3 15 3
5 10 7 15 3 5 -3 7 -10 3 -15z m4904 -44 c-3 -3 -9 2 -12 12 -6 14 -5 15 5 6
7 -7 10 -15 7 -18z m-5551 -277 c-3 -8 -6 -5 -6 6 -1 11 2 17 5 13 3 -3 4 -12
1 -19z m-372 -198 c3 -5 1 -10 -4 -10 -6 0 -11 5 -11 10 0 6 2 10 4 10 3 0 8
-4 11 -10z m6905 -34 c0 -3 -4 -8 -10 -11 -5 -3 -10 -1 -10 4 0 6 5 11 10 11
6 0 10 -2 10 -4z m64 -24 c3 -5 -1 -9 -9 -9 -8 0 -12 4 -9 9 3 4 7 8 9 8 2 0
6 -4 9 -8z m121 -71 c3 -5 2 -12 -3 -15 -5 -3 -9 1 -9 9 0 17 3 19 12 6z m395
-236 c0 -9 -50 22 -55 33 -3 7 8 4 25 -8 17 -12 30 -23 30 -25z m246 -145 c0
-12 -4 -16 -9 -11 -5 5 -6 14 -3 20 10 15 12 14 12 -9z m89 -50 c17 -18 17
-20 2 -14 -9 3 -17 10 -17 16 0 5 -5 6 -12 2 -7 -4 -8 -3 -4 4 9 16 10 15 31
-8z m195 -144 c0 -6 -5 -3 -11 7 -6 9 -15 14 -21 11 -7 -4 -8 -2 -4 5 9 14 36
-3 36 -23z m321 -333 c13 -16 12 -17 -3 -4 -10 7 -18 15 -18 17 0 8 8 3 21
-13z m-9827 -11 c3 -5 -1 -9 -9 -9 -8 0 -15 4 -15 9 0 4 4 8 9 8 6 0 12 -4 15
-8z m9913 -434 c-3 -8 -6 -5 -6 6 -1 11 2 17 5 13 3 -3 4 -12 1 -19z m26 -173
c-3 -9 -8 -14 -10 -11 -3 3 -2 9 2 15 9 16 15 13 8 -4z m32 -296 c11 -16 1
-19 -13 -3 -7 8 -8 14 -3 14 5 0 13 -5 16 -11z m15 -103 c0 -3 -4 -8 -10 -11
-5 -3 -10 -1 -10 4 0 6 5 11 10 11 6 0 10 -2 10 -4z m-10110 -22 c0 -8 -19
-13 -24 -6 -3 5 1 9 9 9 8 0 15 -2 15 -3z m-32 -189 c-3 -3 -9 2 -12 12 -6 14
-5 15 5 6 7 -7 10 -15 7 -18z m10168 -147 c4 -7 3 -8 -4 -4 -7 4 -12 2 -12 -5
0 -7 -3 -10 -6 -6 -6 5 3 27 11 27 2 0 7 -5 11 -12z m-1 -125 c0 -85 -3 -107
-15 -110 -12 -4 -12 -3 -2 5 8 5 14 13 14 17 0 4 -6 12 -14 16 -11 7 -11 9 1
9 10 0 11 3 2 13 -6 8 -8 17 -4 21 12 12 12 36 0 36 -8 0 -7 4 2 9 11 7 10 10
-4 18 -16 9 -16 10 0 16 9 4 13 11 10 17 -4 6 -12 7 -18 3 -7 -3 -3 3 7 15 11
12 20 22 20 22 1 0 1 -48 1 -107z m-10175 -43 c0 -5 -5 -10 -11 -10 -5 0 -7 5
-4 10 3 6 8 10 11 10 2 0 4 -4 4 -10z m10177 -112 c-3 -7 -5 -2 -5 12 0 14 2
19 5 13 2 -7 2 -19 0 -25z m-10187 -12 c-7 -7 -14 -6 -21 1 -9 9 -7 12 9 10
14 -1 18 -5 12 -11z m-7 -86 c3 -11 1 -22 -4 -25 -4 -3 -6 -12 -3 -19 3 -8 2
-16 -3 -19 -4 -3 -8 17 -8 43 -1 49 8 58 18 20z m10 -77 c-7 -2 -13 -11 -13
-19 0 -8 -4 -14 -10 -14 -12 0 -9 22 5 32 6 4 15 7 20 7 6 0 4 -3 -2 -6z m-10
-163 c3 -11 1 -22 -4 -25 -4 -3 -6 -12 -3 -19 3 -8 2 -16 -3 -19 -4 -3 -8 17
-8 43 -1 49 8 58 18 20z m-3 -94 c-5 -13 -6 -27 -2 -32 4 -4 1 -4 -6 0 -14 8
-12 37 3 48 15 11 15 10 5 -16z m10195 -165 c3 -5 2 -12 -3 -15 -5 -3 -9 1 -9
9 0 17 3 19 12 6z m-10198 -336 c0 -8 -4 -12 -9 -9 -4 3 -8 9 -8 15 0 5 4 9 8
9 5 0 9 -7 9 -15z m14 -28 c-10 -9 -11 -8 -5 6 3 10 9 15 12 12 3 -3 0 -11 -7
-18z m0 -34 c12 -14 12 -16 0 -8 -11 6 -13 4 -8 -8 4 -10 2 -14 -6 -11 -14 5
-20 44 -8 44 5 0 15 -8 22 -17z m1 -51 c-11 -8 -16 -45 -13 -100 1 -16 5 -21
13 -16 10 6 10 5 1 -8 -7 -8 -11 -17 -8 -20 3 -3 0 -10 -8 -16 -11 -9 -13 4
-13 71 1 77 7 97 31 97 6 0 4 -4 -3 -8z m-9 -252 c3 -11 1 -22 -4 -25 -4 -3
-6 -12 -3 -19 3 -8 2 -16 -3 -19 -4 -3 -8 17 -8 43 -1 49 8 58 18 20z m10 -77
c-7 -2 -13 -11 -13 -19 0 -8 -4 -14 -10 -14 -12 0 -9 22 5 32 6 4 15 7 20 7 6
0 4 -3 -2 -6z m10182 -152 c0 -53 -1 -57 -17 -47 -10 6 -14 12 -8 14 6 2 8 8
4 13 -3 5 -1 9 4 9 5 0 9 7 9 15 0 10 -6 14 -16 10 -14 -5 -14 -4 0 7 9 7 15
21 13 31 -1 11 0 16 4 12 4 -3 7 -32 7 -64z m-10175 19 c0 -5 -5 -10 -11 -10
-5 0 -7 5 -4 10 3 6 8 10 11 10 2 0 4 -4 4 -10z m10180 -95 c0 -12 -19 -12
-23 0 -4 9 -1 12 9 8 7 -3 14 -7 14 -8z m-4 -86 c1 -54 -4 -63 -26 -48 -11 6
-12 9 -2 9 7 0 10 5 6 12 -5 7 -3 8 6 3 8 -5 11 -3 8 6 -3 8 -12 13 -19 11 -9
-2 -7 3 4 16 12 13 15 22 7 27 -5 3 -8 11 -4 16 11 18 19 -1 20 -52z m-10152
-454 c-4 -8 -11 -15 -16 -15 -6 0 -5 6 2 15 7 8 14 15 16 15 2 0 1 -7 -2 -15z
m10105 -169 c-3 -3 -11 5 -18 17 -13 21 -12 21 5 5 10 -10 16 -20 13 -22z
m-59 -450 c0 -3 -4 -8 -10 -11 -5 -3 -10 -1 -10 4 0 6 5 11 10 11 6 0 10 -2
10 -4z m-9944 -154 c1 -7 0 -8 -3 -2 -2 5 -9 8 -14 4 -5 -3 -9 0 -9 6 0 15 23
7 26 -8z m9904 -46 c0 -3 -4 -8 -10 -11 -5 -3 -10 -1 -10 4 0 6 5 11 10 11 6
0 10 -2 10 -4z m-9875 -85 c-3 -5 -1 -12 5 -16 5 -3 15 -16 21 -28 7 -15 2
-12 -14 8 -22 26 -26 45 -11 45 3 0 3 -4 -1 -9z m93 -141 c-2 -12 15 -40 21
-35 4 2 8 -2 8 -10 0 -19 3 -20 -34 18 -25 27 -27 33 -13 33 10 0 18 -3 18 -6z
m9556 -126 c3 -8 2 -12 -4 -9 -6 3 -10 10 -10 16 0 14 7 11 14 -7z m-113 -87
c-10 -9 -11 -8 -5 6 3 10 9 15 12 12 3 -3 0 -11 -7 -18z m-9027 -133 c3 -8 2
-12 -4 -9 -6 3 -10 10 -10 16 0 14 7 11 14 -7z m30 -20 c3 -8 2 -12 -4 -9 -6
3 -10 10 -10 16 0 14 7 11 14 -7z m219 -145 c-8 -8 -13 -7 -18 2 -5 8 -4 10 3
5 7 -4 12 -2 12 5 0 7 3 9 7 6 4 -4 2 -12 -4 -18z m267 -151 c0 -5 5 -6 10 -3
6 3 10 4 10 1 0 -15 -20 -13 -36 5 -16 18 -16 19 -1 13 9 -3 17 -10 17 -16z
m7480 -176 c0 -5 -7 -9 -15 -9 -8 0 -12 4 -9 9 3 4 9 8 15 8 5 0 9 -4 9 -8z
m-7050 -67 c5 3 11 1 14 -4 4 -5 -2 -8 -11 -7 -9 2 -18 8 -19 15 -1 6 0 7 3 1
2 -5 9 -8 13 -5z m6927 0 c0 -8 -4 -12 -9 -9 -5 3 -6 10 -3 15 9 13 12 11 12
-6z m-297 -160 c11 -13 10 -14 -4 -9 -9 3 -16 10 -16 15 0 13 6 11 20 -6z
m-6082 -121 c12 -8 22 -21 22 -27 -1 -7 -5 -6 -13 4 -7 8 -21 21 -32 27 -11 6
-15 12 -10 12 6 0 21 -7 33 -16z m93 -51 c13 -16 12 -17 -3 -5 -9 8 -23 10
-29 6 -8 -4 -9 -3 -5 4 10 17 21 15 37 -5z m5669 3 c0 -2 -6 -9 -14 -15 -11
-9 -16 -9 -22 0 -4 8 -3 9 4 5 7 -4 12 -2 12 3 0 6 5 11 10 11 6 0 10 -2 10
-4z m-5440 -126 c0 -5 -2 -10 -4 -10 -3 0 -8 5 -11 10 -3 6 -1 10 4 10 6 0 11
-4 11 -10z m471 -220 c10 -6 19 -16 19 -23 0 -8 -3 -9 -8 -1 -4 6 -16 16 -27
22 -25 14 -11 16 16 2z m3995 -142 c4 -7 4 -10 -1 -6 -4 4 -14 3 -22 -4 -11
-8 -12 -7 -7 6 7 19 20 21 30 4z m-3666 -28 c0 -5 -2 -10 -4 -10 -3 0 -8 5
-11 10 -3 6 -1 10 4 10 6 0 11 -4 11 -10z m50 -28 c0 -1 -9 2 -20 8 -11 6 -20
15 -20 20 0 6 9 2 20 -7 11 -10 20 -19 20 -21z m574 -253 c-3 -5 -10 -7 -15
-3 -5 3 -7 10 -3 15 3 5 10 7 15 3 5 -3 7 -10 3 -15z m76 -39 c0 -5 -2 -10 -4
-10 -3 0 -8 5 -11 10 -3 6 -1 10 4 10 6 0 11 -4 11 -10z m460 -170 c0 -5 -5
-10 -11 -10 -5 0 -7 5 -4 10 3 6 8 10 11 10 2 0 4 -4 4 -10z m403 -145 c-3 -9
-8 -14 -10 -11 -3 3 -2 9 2 15 9 16 15 13 8 -4z m490 5 c3 6 4 5 3 -2 -2 -7
-8 -13 -13 -13 -6 0 -15 -3 -19 -7 -11 -11 -24 -10 -24 2 0 6 6 9 13 8 6 -2
11 3 9 11 -3 12 0 12 11 2 10 -8 17 -8 20 -1z m-413 -32 c0 -4 -4 -8 -9 -8 -6
0 -12 4 -15 8 -3 5 1 9 9 9 8 0 15 -4 15 -9z"/>
<path d="M5330 10040 c0 -5 5 -10 11 -10 5 0 7 5 4 10 -3 6 -8 10 -11 10 -2 0
-4 -4 -4 -10z"/>
<path d="M4611 9963 c-1 -17 16 -25 25 -12 4 7 3 9 -4 5 -5 -3 -13 0 -15 6 -4
9 -6 10 -6 1z"/>
<path d="M4550 9929 c0 -5 5 -7 10 -4 6 3 10 8 10 11 0 2 -4 4 -10 4 -5 0 -10
-5 -10 -11z"/>
<path d="M4220 9801 c0 -7 -5 -9 -12 -5 -7 5 -8 3 -3 -5 5 -9 10 -10 18 -2 6
6 8 14 4 18 -4 3 -7 1 -7 -6z"/>
<path d="M6275 9690 c-3 -6 1 -7 9 -4 18 7 21 14 7 14 -6 0 -13 -4 -16 -10z"/>
<path d="M6575 9561 c-3 -5 -2 -12 3 -15 5 -3 9 1 9 9 0 17 -3 19 -12 6z"/>
<path d="M3380 9441 c0 -6 4 -13 10 -16 6 -3 7 1 4 9 -7 18 -14 21 -14 7z"/>
<path d="M2896 9193 c-6 -14 -5 -15 5 -6 7 7 10 15 7 18 -3 3 -9 -2 -12 -12z"/>
<path d="M7446 9138 c3 -5 10 -6 15 -3 13 9 11 12 -6 12 -8 0 -12 -4 -9 -9z"/>
<path d="M7495 9121 c-3 -5 -2 -12 3 -15 5 -3 9 1 9 9 0 17 -3 19 -12 6z"/>
<path d="M7651 9044 c0 -11 3 -14 6 -6 3 7 2 16 -1 19 -3 4 -6 -2 -5 -13z"/>
<path d="M7670 9031 c0 -5 5 -13 10 -16 6 -3 10 -2 10 4 0 5 -4 13 -10 16 -5
3 -10 2 -10 -4z"/>
<path d="M7800 8966 c0 -2 7 -9 15 -16 9 -7 15 -8 15 -2 0 5 -7 12 -15 16 -8
3 -15 4 -15 2z"/>
<path d="M2296 8892 c-3 -5 1 -9 9 -9 8 0 12 4 9 9 -3 4 -7 8 -9 8 -2 0 -6 -4
-9 -8z"/>
<path d="M8245 8740 c-3 -6 1 -7 9 -4 18 7 21 14 7 14 -6 0 -13 -4 -16 -10z"/>
<path d="M1730 8601 c0 -7 -4 -9 -10 -6 -6 4 -7 -1 -3 -11 6 -15 7 -15 15 1 6
9 7 19 4 22 -3 4 -6 1 -6 -6z"/>
<path d="M8711 8474 c6 -7 16 -11 21 -8 11 7 3 17 -18 20 -12 2 -13 -1 -3 -12z"/>
<path d="M1403 8415 c0 -8 4 -12 9 -9 5 3 6 10 3 15 -9 13 -12 11 -12 -6z"/>
<path d="M1083 8231 c0 -11 5 -18 9 -15 4 3 5 11 1 19 -7 21 -12 19 -10 -4z"/>
<path d="M175 7480 c-3 -5 -1 -10 4 -10 6 0 11 5 11 10 0 6 -2 10 -4 10 -3 0
-8 -4 -11 -10z"/>
<path d="M10135 7140 c3 -5 8 -10 11 -10 2 0 4 5 4 10 0 6 -5 10 -11 10 -5 0
-7 -4 -4 -10z"/>
<path d="M95 7080 c-3 -5 -1 -10 4 -10 6 0 11 5 11 10 0 6 -2 10 -4 10 -3 0
-8 -4 -11 -10z"/>
<path d="M10167 6864 c-3 -4 -2 -14 3 -24 5 -10 6 -21 2 -25 -4 -5 -1 -5 6 -1
7 4 12 2 12 -5 0 -7 3 -10 6 -7 3 4 -2 17 -11 31 -13 20 -13 26 -3 30 7 3 8 6
2 6 -6 1 -14 -2 -17 -5z"/>
<path d="M10175 6780 c3 -5 8 -10 11 -10 2 0 4 5 4 10 0 6 -5 10 -11 10 -5 0
-7 -4 -4 -10z"/>
<path d="M59 6723 c-1 -11 -6 -36 -10 -49 -2 -7 0 -12 6 -13 5 -1 10 9 10 21
0 13 4 29 8 36 5 7 4 12 -2 12 -6 0 -11 -3 -12 -7z"/>
<path d="M10195 6540 c-3 -5 -1 -10 4 -10 6 0 11 5 11 10 0 6 -2 10 -4 10 -3
0 -8 -4 -11 -10z"/>
<path d="M38 6443 c7 -3 16 -2 19 1 4 3 -2 6 -13 5 -11 0 -14 -3 -6 -6z"/>
<path d="M10 6227 c0 -2 6 -10 14 -16 11 -9 16 -9 22 1 4 7 4 10 -1 6 -4 -4
-14 -3 -22 3 -7 6 -13 9 -13 6z"/>
<path d="M10222 6191 c-11 -7 -11 -9 0 -14 9 -3 15 1 15 9 0 8 -1 14 -1 14 -1
0 -7 -4 -14 -9z"/>
<path d="M20 6030 c-8 -5 -12 -12 -9 -15 4 -3 12 1 19 10 14 17 11 19 -10 5z"/>
<path d="M16 4254 c-5 -14 -4 -15 9 -4 17 14 19 20 6 20 -5 0 -12 -7 -15 -16z"/>
<path d="M10200 4095 c0 -2 6 -8 13 -14 10 -8 14 -7 14 2 0 8 -6 14 -14 14 -7
0 -13 -1 -13 -2z"/>
<path d="M40 3600 c0 -5 5 -10 11 -10 5 0 7 5 4 10 -3 6 -8 10 -11 10 -2 0 -4
-4 -4 -10z"/>
<path d="M66 3565 c4 -8 11 -15 16 -15 6 0 5 6 -2 15 -7 8 -14 15 -16 15 -2 0
-1 -7 2 -15z"/>
<path d="M94 3217 c0 -13 5 -24 12 -24 14 0 12 23 -2 37 -7 7 -10 2 -10 -13z"/>
<path d="M120 3120 c0 -5 5 -10 11 -10 5 0 7 5 4 10 -3 6 -8 10 -11 10 -2 0
-4 -4 -4 -10z"/>
<path d="M10035 2801 c-9 -16 9 -20 23 -5 10 12 10 14 -2 14 -8 0 -17 -4 -21
-9z"/>
<path d="M370 2556 c0 -2 7 -7 16 -10 8 -3 12 -2 9 4 -6 10 -25 14 -25 6z"/>
<path d="M9553 2325 c0 -8 4 -12 9 -9 5 3 6 10 3 15 -9 13 -12 11 -12 -6z"/>
<path d="M846 2223 c-6 -14 -5 -15 5 -6 7 7 10 15 7 18 -3 3 -9 -2 -12 -12z"/>
<path d="M9345 2210 c-3 -5 1 -10 10 -10 9 0 13 5 10 10 -3 6 -8 10 -10 10 -2
0 -7 -4 -10 -10z"/>
<path d="M1013 2125 c0 -8 4 -12 9 -9 5 3 6 10 3 15 -9 13 -12 11 -12 -6z"/>
<path d="M1117 2067 c-3 -8 1 -14 8 -14 7 0 11 6 8 14 -3 7 -6 13 -8 13 -2 0
-5 -6 -8 -13z"/>
<path d="M8931 1967 c-8 -10 -7 -14 4 -14 8 0 15 6 15 14 0 7 -2 13 -4 13 -2
0 -9 -6 -15 -13z"/>
<path d="M1777 1683 c4 -10 9 -11 18 -3 9 8 15 8 18 0 3 -6 5 -6 3 1 -1 7 -12
13 -23 14 -14 1 -19 -3 -16 -12z"/>
<path d="M2023 1565 c0 -8 4 -12 9 -9 5 3 6 10 3 15 -9 13 -12 11 -12 -6z"/>
<path d="M8105 1510 c-4 -6 -10 -8 -15 -5 -4 3 -13 -2 -19 -9 -9 -10 -9 -16
-1 -21 6 -4 9 -1 8 6 -2 8 6 13 19 14 25 0 38 10 24 19 -5 4 -12 2 -16 -4z"/>
<path d="M2706 1221 c-3 -5 3 -11 15 -14 16 -4 18 -3 8 9 -13 16 -16 17 -23 5z"/>
<path d="M3053 1045 c0 -8 4 -12 9 -9 5 3 6 10 3 15 -9 13 -12 11 -12 -6z"/>
<path d="M6885 911 c-3 -5 -2 -12 3 -15 5 -3 9 1 9 9 0 17 -3 19 -12 6z"/>
<path d="M3450 860 c0 -5 7 -10 16 -10 8 0 12 -4 9 -10 -3 -5 -1 -10 4 -10 18
0 12 19 -9 30 -14 7 -20 7 -20 0z"/>
<path d="M6683 813 c-15 -5 -17 -23 -4 -23 5 0 11 7 15 15 3 8 4 15 3 14 -1 0
-8 -3 -14 -6z"/>
<path d="M3725 731 c-3 -5 0 -13 6 -17 7 -4 9 -3 5 4 -3 5 0 13 6 15 9 4 10 6
1 6 -6 1 -14 -3 -18 -8z"/>
<path d="M4160 538 c-12 -8 -12 -9 2 -5 9 3 19 1 22 -6 3 -9 5 -9 5 0 1 18
-13 23 -29 11z"/>
<path d="M4230 515 c0 -8 4 -15 10 -15 5 0 7 7 4 15 -4 8 -8 15 -10 15 -2 0
-4 -7 -4 -15z"/>
<path d="M4383 445 c0 -8 4 -12 9 -9 5 3 6 10 3 15 -9 13 -12 11 -12 -6z"/>
<path d="M4586 363 c-6 -14 -5 -15 5 -6 7 7 10 15 7 18 -3 3 -9 -2 -12 -12z"/>
<path d="M4715 320 c3 -5 8 -10 11 -10 2 0 4 5 4 10 0 6 -5 10 -11 10 -5 0 -7
-4 -4 -10z"/>
<path d="M5100 256 c0 -2 8 -10 18 -17 15 -13 16 -12 3 4 -13 16 -21 21 -21
13z"/>
<path d="M5205 250 c-3 -6 1 -7 9 -4 18 7 21 14 7 14 -6 0 -13 -4 -16 -10z"/>
</g>
</svg>
